<svg xmlns="http://www.w3.org/2000/svg" width="186" height="110" viewBox="0 0 186 110">
    <g fill="none" fill-rule="evenodd">
        <rect width="184" height="108" x="1" y="1" fill="#438086" stroke="#438086" stroke-width="2" rx="8"/>
        <g stroke="#FFF" transform="translate(37 22)">
            <rect width="46.622" height="65.27" stroke-width="3.5" rx="5"/>
            <path stroke-linecap="round" stroke-linejoin="round" stroke-width="3.5" d="M15.583 8.748l11.827-2.73a2 2 0 0 1 2.399 1.498l.935 4.052a2 2 0 0 1-1.499 2.4l-11.827 2.73a2 2 0 0 1-2.398-1.5l-.936-4.051a2 2 0 0 1 1.499-2.399z"/>
            <path stroke-width="3.5" d="M0 33.088h46.622"/>
            <ellipse cx="34.966" cy="21.757" stroke-linecap="round" stroke-linejoin="round" stroke-width="3.5" rx="4.483" ry="4.533"/>
            <path stroke-linecap="round" stroke-linejoin="round" stroke-width="3.5" d="M24.207 50.313h14.345M24.207 57.565h14.345"/>
            <rect width="9.949" height="11.005" x="7.129" y="47.983" stroke-width="3.5" rx="2"/>
            <path fill="#FFF" fill-rule="nonzero" stroke-width=".3" d="M8.287 44.253L6.24 38.527h1.254l1.45 4.238 1.402-4.238h1.226l-2.05 5.726H8.287zm8.84 0v-5.726h1.156v5.726h-1.156zm6.965-1.863l1.125-.11c.068.378.205.656.412.833.207.177.486.265.838.265.372 0 .653-.078.842-.236.189-.158.283-.342.283-.553 0-.135-.04-.25-.12-.345-.079-.095-.217-.178-.415-.248a14.23 14.23 0 0 0-.926-.25c-.62-.154-1.055-.343-1.305-.567-.351-.315-.527-.7-.527-1.152 0-.292.083-.565.248-.819.165-.253.404-.447.715-.58.311-.132.687-.199 1.127-.199.719 0 1.26.158 1.623.473.363.315.554.735.572 1.262l-1.156.05c-.05-.294-.156-.506-.318-.634-.163-.13-.407-.194-.733-.194-.336 0-.599.07-.789.207a.417.417 0 0 0-.184.356.44.44 0 0 0 .172.347c.146.123.5.25 1.063.383.562.133.978.27 1.248.412.27.142.48.336.633.582.152.246.228.55.228.912a1.686 1.686 0 0 1-1.047 1.561c-.333.14-.748.209-1.246.209-.724 0-1.28-.167-1.668-.502-.388-.335-.62-.822-.695-1.463zm15.793 1.863h-1.258l-.5-1.3h-2.289l-.473 1.3H34.14l2.23-5.726h1.223l2.293 5.726zm-2.129-2.265l-.79-2.125-.772 2.125h1.562z"/>
        </g>
        <text fill="#FFF" font-family="Arial-BoldMT, Arial" font-size="16" font-weight="bold">
            <tspan x="100" y="47">Visa</tspan> <tspan x="100" y="72">Online</tspan>
        </text>
    </g>
</svg>
